<?xml version="1.0" encoding="utf-8"?>
<!-- Generator: Adobe Illustrator 19.2.1, SVG Export Plug-In . SVG Version: 6.00 Build 0)  -->
<svg version="1.1" id="Layer_1" xmlns="http://www.w3.org/2000/svg" xmlns:xlink="http://www.w3.org/1999/xlink" x="0px" y="0px"
	 viewBox="0 0 200 49.8" style="enable-background:new 0 0 200 49.8;" xml:space="preserve">
<style type="text/css">
	.st0{fill:#EBEBEB;}
	.st1{fill:#EBEBEB;stroke:#333333;stroke-width:5;stroke-miterlimit:10;}
	.st2{fill:#333333;stroke:#0088FF;stroke-width:5;stroke-miterlimit:10;}
	.st3{fill:#EBEBEB;stroke:#333333;stroke-miterlimit:10;}
	.st4{fill:#0088FF;stroke:#333333;stroke-miterlimit:10;}
</style>
<g>
	<rect x="-995.2" y="-340.8" class="st0" width="500" height="500"/>
	<g>
		<path class="st1" d="M-952.5-190.2h11.2v-43.2h-12.2V-262h52.7v71.8h11.2v28.7h-62.9V-190.2z M-940.5-300.7h38.9v29.4h-38.9
			V-300.7z"/>
		<path class="st1" d="M-781-222.3h5.8v-4.5c0-4.6-5.4-6.4-10.8-6.4c-12.6,0-27.3,9.5-27.3,9.5l-13.6-27.1c0,0,17.8-13.6,45.7-13.6
			c29.2,0,46.5,15.1,46.5,42v27.9c0,2.5,1.5,4.3,4.3,4.3h6.2v28.7h-33.1c-10.3,0-13.9-7.4-13.9-12.4v-0.2c0-0.8,0.2-1.5,0.2-1.5
			h-0.4c0,0-7.7,15.9-28.5,15.9c-17.6,0-32.3-12-32.3-29.6C-832.3-218.2-796.1-222.3-781-222.3z M-786.6-186.1c5.4,0,12-5.2,12-14.3
			v-3.9h-2.3c-12.2,0-16.5,5.8-16.5,11C-793.4-188.8-790.5-186.1-786.6-186.1z"/>
		<path class="st1" d="M-713.4-190.2h11.2v-39.1c0-2.7-1.5-4.1-4.3-4.1h-7.9V-262h36c9.5,0,14.7,4.5,14.7,12.2
			c0,2.1-0.4,3.7-0.4,3.7h0.4c0,0,11.2-18.2,30.2-18.2c8.9,0,19.2,3.9,24.8,17.6h0.4c5.2-10.3,17.2-17.6,31.6-17.6
			c15.5,0,31.4,8.5,31.4,37.2v37h11.4v28.7h-51.7v-58.9c0-4.5-1.2-7.4-6.2-7.4c-10.1,0-11.6,11-11.6,25v12.6h11.2v28.7h-51.7v-58.9
			c0-4.8-1.5-7.4-6.4-7.4c-11,0-11.4,14.3-11.4,27.3v10.3h11.2v28.7h-62.9V-190.2z"/>
	</g>
	<g>
		<path class="st2" d="M-874.9-54.8c27.7,0,38.4,14.5,38.4,14.5h0.6c0,0-0.6-4.2-0.6-10v-17.4h-20.3v-47.7h87.7v177
			c0,4.2,2.6,7.1,7.1,7.1h10.3v47.7h-55.4c-16.8,0-23.2-10-23.2-16.8c0-4.2,0.6-7.4,0.6-7.4h-0.6c0,0-12.2,28-49.3,28
			c-44.5,0-74.1-35.5-74.1-87.7C-953.8-20.7-922.9-54.8-874.9-54.8z M-860.7,65.1c13.2,0,26.1-10,26.1-31.3
			c0-17.4-8.4-32.6-25.5-32.6c-14.2,0-26.4,11-26.4,31.6C-886.5,51.9-875.8,65.1-860.7,65.1z"/>
		<path class="st2" d="M-721.1-67.7h-20.3v-47.7h87.7v61.9c0,8.7-0.6,14.5-0.6,14.5h0.6c0,0,16.1-15.8,41.3-15.8
			c45.8,0,76.4,35.8,76.4,87.7c0,52.9-34.2,87.4-79,87.4c-31.6,0-42.9-19-42.9-19h-0.6c0,0,0.3,5.8,0.3,10v5.2h-62.9V-67.7z
			 M-629.6,65.1c13.5,0,25.8-11,25.8-30.9c0-19.7-10.3-32.9-26.1-32.9c-13.2,0-25.8,10-25.8,32.9C-655.7,49.6-647.3,65.1-629.6,65.1
			z"/>
	</g>
</g>
<g>
	<rect x="0" y="0.2" class="st0" width="200" height="49.5"/>
	<g>
		<path class="st3" d="M1.3,41.1h2.6v-10H1.1v-6.7h12.2v16.7h2.6v6.7H1.3V41.1z M4.1,15.4h9v6.8h-9V15.4z"/>
		<path class="st3" d="M41.2,33.7h1.3v-1c0-1.1-1.3-1.5-2.5-1.5c-2.9,0-6.3,2.2-6.3,2.2L30.5,27c0,0,4.1-3.1,10.6-3.1
			c6.8,0,10.8,3.5,10.8,9.8v6.5c0,0.6,0.4,1,1,1h1.4v6.7h-7.7c-2.4,0-3.2-1.7-3.2-2.9v0c0-0.2,0-0.4,0-0.4h-0.1c0,0-1.8,3.7-6.6,3.7
			c-4.1,0-7.5-2.8-7.5-6.9C29.2,34.6,37.7,33.7,41.2,33.7z M39.9,42.1c1.3,0,2.8-1.2,2.8-3.3v-0.9h-0.5c-2.8,0-3.8,1.3-3.8,2.6
			C38.3,41.4,39,42.1,39.9,42.1z"/>
		<path class="st3" d="M56.9,41.1h2.6V32c0-0.6-0.4-0.9-1-0.9h-1.8v-6.7H65c2.2,0,3.4,1,3.4,2.8c0,0.5-0.1,0.9-0.1,0.9h0.1
			c0,0,2.6-4.2,7-4.2c2.1,0,4.5,0.9,5.8,4.1h0.1c1.2-2.4,4-4.1,7.3-4.1c3.6,0,7.3,2,7.3,8.6v8.6h2.7v6.7h-12V34.1
			c0-1-0.3-1.7-1.4-1.7c-2.3,0-2.7,2.6-2.7,5.8v2.9H85v6.7H73V34.1c0-1.1-0.4-1.7-1.5-1.7c-2.6,0-2.7,3.3-2.7,6.3v2.4h2.6v6.7H56.9
			V41.1z"/>
		<path class="st4" d="M128.1,13.3c5.6,0,7.7,2.9,7.7,2.9h0.1c0,0-0.1-0.8-0.1-2v-3.5h-4.1V1h17.7v35.7c0,0.8,0.5,1.4,1.4,1.4h2.1
			v9.6h-11.2c-3.4,0-4.7-2-4.7-3.4c0-0.8,0.1-1.5,0.1-1.5h-0.1c0,0-2.5,5.7-9.9,5.7c-9,0-15-7.2-15-17.7
			C112.2,20.2,118.4,13.3,128.1,13.3z M130.9,37.4c2.7,0,5.3-2,5.3-6.3c0-3.5-1.7-6.6-5.1-6.6c-2.9,0-5.3,2.2-5.3,6.4
			C125.7,34.8,127.9,37.4,130.9,37.4z"/>
		<path class="st4" d="M159.1,10.7H155V1h17.7v12.5c0,1.8-0.1,2.9-0.1,2.9h0.1c0,0,3.2-3.2,8.3-3.2c9.2,0,15.4,7.2,15.4,17.7
			c0,10.7-6.9,17.6-15.9,17.6c-6.4,0-8.6-3.8-8.6-3.8h-0.1c0,0,0.1,1.2,0.1,2v1h-12.7V10.7z M177.6,37.4c2.7,0,5.2-2.2,5.2-6.2
			c0-4-2.1-6.6-5.3-6.6c-2.7,0-5.2,2-5.2,6.6C172.3,34.3,174,37.4,177.6,37.4z"/>
	</g>
</g>
<g>
</g>
<g>
</g>
<g>
</g>
<g>
</g>
<g>
</g>
<g>
</g>
<g>
</g>
<g>
</g>
<g>
</g>
<g>
</g>
<g>
</g>
<g>
</g>
<g>
</g>
<g>
</g>
<g>
</g>
</svg>
