<svg xmlns="http://www.w3.org/2000/svg" viewBox="0 0 163.76 48.59"><title>logo</title><rect width="163.76" height="48.59" style="fill:transparent"/><path d="M1.43,51H3.29V43.88h-2V39.14H10V51h1.86v4.74H1.43Zm2-18.27H9.85v4.86H3.42Z" transform="translate(-0.98 -8.47)" style="fill:none;stroke:#333333;stroke-miterlimit:10;stroke-width:0.5px"/><path d="M29.79,45.7h1V45c0-.77-.9-1.06-1.79-1.06a10.23,10.23,0,0,0-4.51,1.57L22.2,41a13.34,13.34,0,0,1,7.55-2.24c4.83,0,7.68,2.5,7.68,6.94v4.61a.66.66,0,0,0,.7.7h1v4.74H33.69a2.1,2.1,0,0,1-2.3-2v0a1.2,1.2,0,0,1,0-.26h-.06A5.23,5.23,0,0,1,26.65,56c-2.91,0-5.34-2-5.34-4.9C21.31,46.37,27.29,45.7,29.79,45.7Zm-.93,6a2.21,2.21,0,0,0,2-2.37v-.64h-.38c-2,0-2.72,1-2.72,1.82A1.09,1.09,0,0,0,28.86,51.69Z" transform="translate(-0.98 -8.47)" style="fill:none;stroke:#333333;stroke-miterlimit:10;stroke-width:0.5px"/><path d="M41,51h1.86V44.55a.62.62,0,0,0-.7-.67H40.79V39.14h6c1.57,0,2.43.74,2.43,2a2.79,2.79,0,0,1-.06.61h.06s1.86-3,5-3a4.24,4.24,0,0,1,4.1,2.91h.06a5.77,5.77,0,0,1,5.22-2.91c2.56,0,5.18,1.41,5.18,6.14V51h1.89v4.74H62.07V46c0-.74-.19-1.22-1-1.22-1.66,0-1.92,1.82-1.92,4.13V51H61v4.74H52.44V46c0-.8-.26-1.22-1.06-1.22-1.82,0-1.89,2.37-1.89,4.51V51h1.86v4.74H41Z" transform="translate(-0.98 -8.47)" style="fill:none;stroke:#333333;stroke-miterlimit:10;stroke-width:0.5px"/><path d="M99.87,21.23c5.59,0,7.74,2.93,7.74,2.93h.13a14.7,14.7,0,0,1-.13-2V18.63h-4.09V9h17.68V44.7a1.33,1.33,0,0,0,1.43,1.43h2.08v9.62H113.52c-3.38,0-4.68-2-4.68-3.38a8.46,8.46,0,0,1,.13-1.5h-.13s-2.47,5.66-9.95,5.66c-9,0-15-7.15-15-17.68C83.95,28.12,90.19,21.23,99.87,21.23Zm2.86,24.18c2.67,0,5.26-2,5.26-6.31,0-3.51-1.69-6.57-5.13-6.57-2.86,0-5.33,2.21-5.33,6.37C97.53,42.75,99.68,45.41,102.73,45.41Z" transform="translate(-0.98 -8.47)" style="fill:#333;stroke:#08f;stroke-miterlimit:10"/><path d="M126.85,18.63h-4.09V9h17.68V21.49a29.1,29.1,0,0,1-.13,2.92h.13a12.74,12.74,0,0,1,8.32-3.19c9.23,0,15.41,7.22,15.41,17.68,0,10.66-6.89,17.62-15.93,17.62-6.37,0-8.65-3.83-8.65-3.83h-.13s.07,1.17.07,2v1H126.85Zm18.46,26.78c2.73,0,5.2-2.21,5.2-6.24s-2.08-6.63-5.27-6.63c-2.67,0-5.2,2-5.2,6.63C140,42.29,141.73,45.41,145.31,45.41Z" transform="translate(-0.98 -8.47)" style="fill:#333;stroke:#08f;stroke-miterlimit:10"/></svg>