<svg xmlns="http://www.w3.org/2000/svg" viewBox="0 0 368 58"><title>Asset 1</title><path d="M25,52c0,4.06-2.2,6-6.32,6H0V0H18.68C22.59,0,25,1.67,25,6ZM18.77,4H4V54H18.62A2.37,2.37,0,0,0,21,51.62V6.23A2.23,2.23,0,0,0,18.77,4Zm-.35,49H5V5H18.27A1.72,1.72,0,0,1,20,6.73V51.42A1.58,1.58,0,0,1,18.42,53ZM16,49V9H10V49Z"/><path d="M55,58H51V5.88C51,4.58,50.14,4,48.92,4H36c-1.22,0-2,.58-2,1.88V58H30V6.23C30,1.74,32.34,0,36.52,0h12C52.73,0,55,1.74,55,6.23ZM50,32H35V6.32c0-1,.37-1.32,1.26-1.32H48.74c1,0,1.26.29,1.26,1.32Zm0,26H45V37H39V58H35V33H50ZM45,28V9H39V28Z"/><path d="M84,38.28c0,7.39-3.91,14.21-7.81,19.72H66.81C63.19,52.63,59,46.25,59,38.57V0h4V37.78C63,43.91,65.81,49,69,54h5c2.23-3.39,6-9.3,6-16.44V0h4Zm-5-.63c0,6.66-3.19,12-5.72,15.35H69.64C66.45,48.08,64,43.88,64,37.8V0h5V36.94A22.51,22.51,0,0,0,71.93,48h.21A22.89,22.89,0,0,0,75,36.94V0h4Z"/><path d="M92,58H88V0h4Zm6,0H94V0h4Z"/><path d="M127,52c0,4.06-2.2,6-6.32,6H102V0h18.68C124.59,0,127,1.67,127,6ZM120.77,4H106V54h14.62A2.37,2.37,0,0,0,123,51.62V6.23A2.23,2.23,0,0,0,120.77,4Zm-.35,49H107V5h13.27A1.72,1.72,0,0,1,122,6.73V51.42A1.58,1.58,0,0,1,120.42,53ZM117,49V9h-6V49Z"/><path d="M170,51.84c0,3.84-2.27,6.16-6.13,6.16H145V0h18.87C167.8,0,170,1.67,170,6.16V24.5c0,2.9-1.2,4.21-3,4.86v.07c1.73.29,3,1.53,3,4.43Zm-4-18.49c.14-2.88-1.16-3.89-3-4.11v-.07c2.06-.36,3-4.46,3-4.46V5.86A1.69,1.69,0,0,0,164.06,4H149V54h15.05s2.09-.92,1.95-2.22Zm-1-7.85c0,2.26-1.7,3.5-3.92,3.5H150V5h13.74c1,0,1.26.22,1.26,1.31Zm0,26.2c0,.94-.37,1.3-1.26,1.3H150V30h11.18A3.82,3.82,0,0,1,165,33.82ZM161,25V9h-6V25Zm0,24V33h-6V49Z"/><path d="M195,58H175V0h20V4H179V54h16Zm0-49H184V25h10v4H180V5h15Zm0,44H180V30h14v4H184V49h11Z"/><path d="M223,58h-4V5.88c0-1.3-.79-1.88-2-1.88H202V58h-4V0h18.56C220.73,0,223,1.74,223,6.23Zm-5,0h-4V9h-6V58h-5V5h13.74c1,0,1.26.22,1.26,1.3Z"/><path d="M252,50.94c0,4.42-2.21,6.06-6.28,6.06H233.4c-4.15,0-6.4-1.62-6.4-6V39h4V52.1a1.76,1.76,0,0,0,2,1.9h13a1.76,1.76,0,0,0,2-1.9V0h4Zm-5,.76c0,1.08-.28,1.3-1.17,1.3H233.34c-1,0-1.34-.22-1.34-1.34V39h5V49h6V0h4Z"/><path d="M281,58h-4V5.88c0-1.3-.86-1.88-2.08-1.88H262c-1.22,0-2,.58-2,1.88V58h-4V6.23C256,1.74,258.34,0,262.52,0h12C278.73,0,281,1.74,281,6.23Zm-5-26H261V6.32c0-1,.37-1.32,1.26-1.32h12.48c1,0,1.26.29,1.26,1.32Zm0,26h-4V37h-6V58h-5V33h15Zm-4-30V9h-6V28Z"/><path d="M325,58h-4V5.88c0-1.3-.79-1.88-2-1.88H290V58h-4V0h32.42C322.64,0,325,1.74,325,6.23Zm-20,0h-5V9h-5V58h-4V5h14Zm15,0h-5V9h-5V58h-4V5h12.73c1,0,1.27.22,1.27,1.3Z"/><path d="M333,58h-4V0h4Zm5,0h-4V0h4Z"/><path d="M368,58h-4V5.88c0-1.3-.79-1.88-2-1.88H347V58h-4V0h18.56C365.73,0,368,1.74,368,6.23Zm-5,0h-5V9h-6V58h-4V5h13.74c1,0,1.26.22,1.26,1.3Z"/></svg>