<?xml version="1.0" encoding="UTF-8"?>
<svg width="328px" height="52px" viewBox="0 0 328 52" version="1.1" xmlns="http://www.w3.org/2000/svg" xmlns:xlink="http://www.w3.org/1999/xlink">
    <g stroke="none" stroke-width="1" fill="none" fill-rule="evenodd" transform="translate(-556.000000, -26.000000)">
        <g transform="translate(480.000000, 26.000000)" fill="#333333">
            <path d="M99.008,6.112 L99.008,46.688 C99.008,50.272 97.024,52 93.312,52 L76.48,52 L76.48,0.8 L93.312,0.8 C96.832,0.8 99.008,2.272 99.008,6.112 Z M95.296,46.688 L95.296,6.112 C95.296,4.64 94.656,4.128 93.184,4.128 L80.192,4.128 L80.192,48.736 L93.184,48.736 C94.656,48.736 95.296,48.16 95.296,46.688 Z M94.208,6.624 L94.208,46.24 C94.208,47.328 93.824,47.648 92.736,47.648 L81.28,47.648 L81.28,5.152 L92.672,5.152 C93.76,5.152 94.208,5.536 94.208,6.624 Z M84.992,44.32 L90.496,44.32 L90.496,8.48 L84.992,8.48 L84.992,44.32 Z M120.32,6.368 L120.32,28.832 L107.328,28.832 L107.328,6.368 C107.328,5.536 107.648,5.216 108.416,5.216 L119.232,5.216 C120.064,5.216 120.32,5.472 120.32,6.368 Z M125.12,6.304 L125.12,52 L121.408,52 L121.408,5.792 C121.408,4.64 120.64,4.128 119.552,4.128 L108.032,4.128 C106.944,4.128 106.24,4.64 106.24,5.792 L106.24,52 L102.528,52 L102.528,6.304 C102.528,2.336 104.64,0.8 108.416,0.8 L119.296,0.8 C123.072,0.8 125.12,2.336 125.12,6.304 Z M120.32,29.92 L120.32,52 L116.608,52 L116.608,33.184 L111.04,33.184 L111.04,52 L107.328,52 L107.328,29.92 L120.32,29.92 Z M111.04,25.568 L116.608,25.568 L116.608,8.48 L111.04,8.48 L111.04,25.568 Z M146.432,0.8 L146.432,34.08 C146.432,39.968 143.68,44.64 141.504,47.648 L138.368,47.648 C135.616,43.296 133.504,39.584 133.504,34.208 L133.504,0.8 L137.216,0.8 L137.216,33.504 C137.216,37.92 138.688,41.12 139.904,43.296 L140.096,43.296 C141.504,40.928 142.72,37.408 142.72,33.504 L142.72,0.8 L146.432,0.8 Z M151.232,0.8 L151.232,34.592 C151.232,41.12 147.712,47.136 144.192,52 L135.744,52 C132.48,47.264 128.704,41.632 128.704,34.848 L128.704,0.8 L132.416,0.8 L132.416,34.336 C132.416,39.776 134.912,44.32 137.728,48.736 L142.144,48.736 C144.128,45.728 147.52,40.48 147.52,34.144 L147.52,0.8 L151.232,0.8 Z M163.328,0.8 L163.328,52 L159.616,52 L159.616,0.8 L163.328,0.8 Z M158.528,0.8 L158.528,52 L154.816,52 L154.816,0.8 L158.528,0.8 Z M189.376,6.112 L189.376,46.688 C189.376,50.272 187.392,52 183.68,52 L166.848,52 L166.848,0.8 L183.68,0.8 C187.2,0.8 189.376,2.272 189.376,6.112 Z M185.664,46.688 L185.664,6.112 C185.664,4.64 185.024,4.128 183.552,4.128 L170.56,4.128 L170.56,48.736 L183.552,48.736 C185.024,48.736 185.664,48.16 185.664,46.688 Z M184.576,6.624 L184.576,46.24 C184.576,47.328 184.192,47.648 183.104,47.648 L171.648,47.648 L171.648,5.152 L183.04,5.152 C184.128,5.152 184.576,5.536 184.576,6.624 Z M175.36,44.32 L180.864,44.32 L180.864,8.48 L175.36,8.48 L175.36,44.32 Z M227.776,30.688 L227.776,46.56 C227.776,49.952 225.6,52 221.888,52 L205.184,52 L205.184,0.8 L221.888,0.8 C225.664,0.8 227.776,2.272 227.776,6.24 L227.776,22.432 C227.776,24.992 226.624,26.144 224.896,26.72 L224.896,26.784 C226.56,27.04 227.776,28.128 227.776,30.688 Z M224.064,46.816 L224.064,30.432 C224.064,27.872 222.912,26.976 221.696,26.784 L221.696,26.72 C223.104,26.4 224.064,25.312 224.064,22.752 L224.064,5.728 C224.064,4.576 223.424,4.064 222.336,4.064 L208.896,4.064 L208.896,48.736 L222.208,48.736 C223.296,48.736 224.064,47.968 224.064,46.816 Z M222.976,6.304 L222.976,23.136 C222.976,25.12 221.504,26.208 219.584,26.208 L209.984,26.208 L209.984,5.152 L221.888,5.152 C222.72,5.152 222.976,5.344 222.976,6.304 Z M222.976,30.176 L222.976,46.496 C222.976,47.328 222.656,47.648 221.888,47.648 L209.984,47.648 L209.984,27.296 L219.584,27.296 C221.504,27.296 222.976,28.256 222.976,30.176 Z M213.696,22.944 L219.264,22.944 L219.264,8.48 L213.696,8.48 L213.696,22.944 Z M213.696,44.32 L219.264,44.32 L219.264,30.496 L213.696,30.496 L213.696,44.32 Z M249.536,5.152 L249.536,8.48 L239.872,8.48 L239.872,22.944 L248.896,22.944 L248.896,26.208 L236.16,26.208 L236.16,5.152 L249.536,5.152 Z M249.536,48.736 L249.536,52 L231.36,52 L231.36,0.8 L249.536,0.8 L249.536,4.128 L235.072,4.128 L235.072,48.736 L249.536,48.736 Z M249.536,44.32 L249.536,47.648 L236.16,47.648 L236.16,27.296 L248.896,27.296 L248.896,30.496 L239.872,30.496 L239.872,44.32 L249.536,44.32 Z M274.944,6.304 L274.944,52 L271.232,52 L271.232,5.792 C271.232,4.64 270.528,4.128 269.44,4.128 L256.064,4.128 L256.064,52 L252.352,52 L252.352,0.8 L269.12,0.8 C272.896,0.8 274.944,2.336 274.944,6.304 Z M270.144,6.304 L270.144,52 L266.432,52 L266.432,8.48 L260.864,8.48 L260.864,52 L257.152,52 L257.152,5.152 L269.056,5.152 C269.888,5.152 270.144,5.344 270.144,6.304 Z M295.744,0.8 L295.744,46.496 C295.744,47.456 295.488,47.648 294.656,47.648 L283.968,47.648 C283.136,47.648 282.816,47.456 282.816,46.496 L282.816,35.616 L286.528,35.616 L286.528,44.32 L292.032,44.32 L292.032,0.8 L295.744,0.8 Z M300.544,0.8 L300.544,46.56 C300.544,50.528 298.496,52 294.72,52 L283.84,52 C280.064,52 278.016,50.528 278.016,46.56 L278.016,35.616 L281.728,35.616 L281.728,47.072 C281.728,48.224 282.432,48.736 283.52,48.736 L295.04,48.736 C296.128,48.736 296.832,48.224 296.832,47.072 L296.832,0.8 L300.544,0.8 Z M321.92,6.368 L321.92,28.832 L308.928,28.832 L308.928,6.368 C308.928,5.536 309.248,5.216 310.016,5.216 L320.832,5.216 C321.664,5.216 321.92,5.472 321.92,6.368 Z M326.72,6.304 L326.72,52 L323.008,52 L323.008,5.792 C323.008,4.64 322.24,4.128 321.152,4.128 L309.632,4.128 C308.544,4.128 307.84,4.64 307.84,5.792 L307.84,52 L304.128,52 L304.128,6.304 C304.128,2.336 306.24,0.8 310.016,0.8 L320.896,0.8 C324.672,0.8 326.72,2.336 326.72,6.304 Z M321.92,29.92 L321.92,52 L318.208,52 L318.208,33.184 L312.64,33.184 L312.64,52 L308.928,52 L308.928,29.92 L321.92,29.92 Z M312.64,25.568 L318.208,25.568 L318.208,8.48 L312.64,8.48 L312.64,25.568 Z M360.384,6.304 L360.384,52 L356.672,52 L356.672,8.48 L352.064,8.48 L352.064,52 L348.352,52 L348.352,5.152 L359.296,5.152 C360.128,5.152 360.384,5.344 360.384,6.304 Z M365.184,6.304 L365.184,52 L361.472,52 L361.472,5.792 C361.472,4.64 360.768,4.128 359.68,4.128 L334.016,4.128 L334.016,52 L330.304,52 L330.304,0.8 L359.296,0.8 C363.072,0.8 365.184,2.336 365.184,6.304 Z M347.264,5.152 L347.264,52 L343.552,52 L343.552,8.48 L338.816,8.48 L338.816,52 L335.104,52 L335.104,5.152 L347.264,5.152 Z M377.28,0.8 L377.28,52 L373.568,52 L373.568,0.8 L377.28,0.8 Z M372.48,0.8 L372.48,52 L368.768,52 L368.768,0.8 L372.48,0.8 Z M403.456,6.304 L403.456,52 L399.744,52 L399.744,5.792 C399.744,4.64 399.04,4.128 397.952,4.128 L384.576,4.128 L384.576,52 L380.864,52 L380.864,0.8 L397.632,0.8 C401.408,0.8 403.456,2.336 403.456,6.304 Z M398.656,6.304 L398.656,52 L394.944,52 L394.944,8.48 L389.376,8.48 L389.376,52 L385.664,52 L385.664,5.152 L397.568,5.152 C398.4,5.152 398.656,5.344 398.656,6.304 Z"></path>
        </g>
    </g>
</svg>