<?xml version="1.0" encoding="UTF-8"?>
<svg width="32px" height="31px" viewBox="0 0 32 31" version="1.1" xmlns="http://www.w3.org/2000/svg" xmlns:xlink="http://www.w3.org/1999/xlink">
    <!-- Generator: Sketch 48.2 (47327) - http://www.bohemiancoding.com/sketch -->
    <title>github</title>
    <desc>Created with Sketch.</desc>
    <defs></defs>
    <g stroke="none" stroke-width="1" fill-rule="evenodd" transform="translate(-612.000000, -961.000000)">
        <g transform="translate(612.000000, 961.000000)">
            <g>
                <path d="M15.6097561,0.390243902 C7.02439024,0.390243902 0,7.41463415 0,16 C0,22.9268293 4.48780488,28.7804878 10.6341463,30.8292683 C11.4146341,30.9268293 11.7073171,30.5365854 11.7073171,30.0487805 C11.7073171,29.6585366 11.7073171,28.6829268 11.7073171,27.4146341 C7.31707317,28.3902439 6.43902439,25.3658537 6.43902439,25.3658537 C5.75609756,23.6097561 4.68292683,23.1219512 4.68292683,23.1219512 C3.2195122,22.1463415 4.7804878,22.1463415 4.7804878,22.1463415 C6.34146341,22.2439024 7.2195122,23.7073171 7.2195122,23.7073171 C8.58536585,26.0487805 10.8292683,25.3658537 11.804878,24.9756098 C11.902439,24 12.3902439,23.3170732 12.7804878,22.9268293 C9.26829268,22.5365854 5.65853659,21.1707317 5.65853659,15.2195122 C5.65853659,13.5609756 6.24390244,12.097561 7.2195122,11.0243902 C7.02439024,10.6341463 6.53658537,9.07317073 7.41463415,6.92682927 C7.41463415,6.92682927 8.68292683,6.53658537 11.7073171,8.48780488 C12.9756098,8.09756098 14.2439024,8 15.6097561,8 C16.9756098,8 18.2439024,8.19512195 19.5121951,8.48780488 C22.5365854,6.43902439 23.804878,6.82926829 23.804878,6.82926829 C24.6829268,8.97560976 24.097561,10.5365854 24,10.9268293 C24.9756098,12 25.5609756,13.3658537 25.5609756,15.1219512 C25.5609756,21.0731707 21.9512195,22.4390244 18.4390244,22.8292683 C19.0243902,23.3170732 19.5121951,24.2926829 19.5121951,25.7560976 C19.5121951,27.804878 19.5121951,29.5609756 19.5121951,30.0487805 C19.5121951,30.4390244 19.804878,30.9268293 20.5853659,30.8292683 C26.7317073,28.7804878 31.2195122,22.9268293 31.2195122,16 C31.2195122,7.41463415 24.195122,0.390243902 15.6097561,0.390243902 Z"></path>
            </g>
        </g>
    </g>
</svg>