<?xml version="1.0" encoding="UTF-8"?>
<svg width="32px" height="32px" viewBox="0 0 32 32" version="1.1" xmlns="http://www.w3.org/2000/svg" xmlns:xlink="http://www.w3.org/1999/xlink">
    <!-- Generator: Sketch 48.2 (47327) - http://www.bohemiancoding.com/sketch -->
    <title>instagram</title>
    <desc>Created with Sketch.</desc>
    <defs></defs>
    <g stroke="none" stroke-width="1" fill-rule="evenodd" transform="translate(-734.000000, -961.000000)">
        <g transform="translate(612.000000, 961.000000)" fill-rule="nonzero">
            <g transform="translate(122.536585, 0.000000)">
                <path d="M27.5121951,0 L3.70731707,0 C1.65853659,0 0,1.65853659 0,3.70731707 L0,27.5121951 C0,29.5609756 1.65853659,31.2195122 3.70731707,31.2195122 L27.5121951,31.2195122 C29.5609756,31.2195122 31.2195122,29.5609756 31.2195122,27.5121951 L31.2195122,3.70731707 C31.2195122,1.65853659 29.5609756,0 27.5121951,0 Z M23.4146341,3.90243902 L26.3414634,3.90243902 C26.9268293,3.90243902 27.3170732,4.29268293 27.3170732,4.87804878 L27.3170732,7.80487805 C27.3170732,8.3902439 26.9268293,8.7804878 26.3414634,8.7804878 L23.4146341,8.7804878 C22.8292683,8.7804878 22.4390244,8.3902439 22.4390244,7.80487805 L22.4390244,4.87804878 C22.4390244,4.29268293 22.8292683,3.90243902 23.4146341,3.90243902 Z M15.6097561,9.65853659 C18.9268293,9.65853659 21.6585366,12.2926829 21.6585366,15.6097561 C21.6585366,18.9268293 18.9268293,21.5609756 15.6097561,21.5609756 C12.2926829,21.5609756 9.56097561,18.9268293 9.56097561,15.6097561 C9.65853659,12.2926829 12.2926829,9.65853659 15.6097561,9.65853659 Z M27.3170732,28.2926829 L3.90243902,28.2926829 C3.31707317,28.2926829 2.92682927,27.902439 2.92682927,27.3170732 L2.92682927,12.6829268 L6.82926829,12.6829268 C6.34146341,13.4634146 6.14634146,14.7317073 6.14634146,15.6097561 C6.14634146,20.8780488 10.4390244,25.0731707 15.6097561,25.0731707 C20.8780488,25.0731707 25.0731707,20.7804878 25.0731707,15.6097561 C25.0731707,14.7317073 24.9756098,13.3658537 24.2926829,12.6829268 L28.195122,12.6829268 L28.195122,27.3170732 C28.2926829,27.902439 27.902439,28.2926829 27.3170732,28.2926829 Z"></path>
            </g>
        </g>
    </g>
</svg>