<?xml version="1.0" encoding="UTF-8"?>
<svg width="32px" height="32px" viewBox="0 0 32 32" version="1.1" xmlns="http://www.w3.org/2000/svg" xmlns:xlink="http://www.w3.org/1999/xlink">
    <!-- Generator: Sketch 48.2 (47327) - http://www.bohemiancoding.com/sketch -->
    <title>linkedin</title>
    <desc>Created with Sketch.</desc>
    <defs></defs>
    <g stroke="none" stroke-width="1" fill-rule="evenodd" transform="translate(-673.000000, -961.000000)">
        <g transform="translate(612.000000, 961.000000)" fill-rule="nonzero">
            <g transform="translate(61.658537, 0.000000)">
                <path d="M29.9512195,0 L1.26829268,0 C0.585365854,0 0,0.585365854 0,1.26829268 L0,29.8536585 C0,30.6341463 0.585365854,31.2195122 1.26829268,31.2195122 L29.8536585,31.2195122 C30.5365854,31.2195122 31.1219512,30.6341463 31.1219512,29.9512195 L31.1219512,1.26829268 C31.2195122,0.585365854 30.6341463,0 29.9512195,0 Z M9.26829268,26.6341463 L4.58536585,26.6341463 L4.58536585,11.7073171 L9.26829268,11.7073171 L9.26829268,26.6341463 Z M6.92682927,9.65853659 C5.46341463,9.65853659 4.19512195,8.48780488 4.19512195,6.92682927 C4.19512195,5.46341463 5.36585366,4.19512195 6.92682927,4.19512195 C8.3902439,4.19512195 9.65853659,5.36585366 9.65853659,6.92682927 C9.65853659,8.48780488 8.3902439,9.65853659 6.92682927,9.65853659 Z M26.6341463,26.6341463 L22.0487805,26.6341463 L22.0487805,19.4146341 C22.0487805,17.6585366 22.0487805,15.5121951 19.6097561,15.5121951 C17.1707317,15.5121951 16.8780488,17.3658537 16.8780488,19.3170732 L16.8780488,26.7317073 L12.2926829,26.7317073 L12.2926829,11.7073171 L16.5853659,11.7073171 L16.5853659,13.7560976 L16.6829268,13.7560976 C17.2682927,12.5853659 18.8292683,11.3170732 21.0731707,11.3170732 C25.7560976,11.3170732 26.6341463,14.4390244 26.6341463,18.4390244 L26.6341463,26.6341463 Z"></path>
            </g>
        </g>
    </g>
</svg>