<?xml version="1.0" encoding="UTF-8"?>
<svg width="32px" height="32px" viewBox="0 0 32 32" version="1.1" xmlns="http://www.w3.org/2000/svg" xmlns:xlink="http://www.w3.org/1999/xlink">
    <!-- Generator: Sketch 48.2 (47327) - http://www.bohemiancoding.com/sketch -->
    <title>spotify</title>
    <desc>Created with Sketch.</desc>
    <defs></defs>
    <g stroke="none" stroke-width="1" fill-rule="evenodd" transform="translate(-796.000000, -961.000000)">
        <g transform="translate(612.000000, 961.000000)" fill-rule="nonzero">
            <g transform="translate(184.195122, 0.780488)">
                <path d="M15.6097561,0 C7.02439024,0 0,7.02439024 0,15.6097561 C0,24.195122 7.02439024,31.2195122 15.6097561,31.2195122 C24.195122,31.2195122 31.2195122,24.195122 31.2195122,15.6097561 C31.2195122,7.02439024 24.2926829,0 15.6097561,0 Z M22.8292683,22.5365854 C22.5365854,23.0243902 21.9512195,23.1219512 21.4634146,22.8292683 C17.7560976,20.5853659 13.1707317,20.097561 7.70731707,21.3658537 C7.12195122,21.5609756 6.73170732,21.1707317 6.53658537,20.6829268 C6.34146341,20.097561 6.73170732,19.7073171 7.2195122,19.5121951 C13.1707317,18.1463415 18.3414634,18.7317073 22.3414634,21.2682927 C22.9268293,21.4634146 23.0243902,22.0487805 22.8292683,22.5365854 Z M24.6829268,18.2439024 C24.2926829,18.8292683 23.6097561,19.0243902 23.0243902,18.6341463 C18.8292683,16.097561 12.3902439,15.3170732 7.51219512,16.8780488 C6.92682927,17.0731707 6.14634146,16.6829268 6.04878049,16.097561 C5.85365854,15.4146341 6.14634146,14.7317073 6.82926829,14.6341463 C12.4878049,12.8780488 19.5121951,13.7560976 24.3902439,16.7804878 C24.7804878,16.9756098 25.0731707,17.7560976 24.6829268,18.2439024 Z M24.7804878,13.8536585 C19.804878,10.9268293 11.4146341,10.5365854 6.63414634,12.097561 C5.85365854,12.2926829 5.07317073,11.902439 4.87804878,11.1219512 C4.68292683,10.3414634 5.07317073,9.56097561 5.85365854,9.36585366 C11.4146341,7.70731707 20.4878049,8 26.3414634,11.5121951 C27.0243902,11.902439 27.3170732,12.8780488 26.9268293,13.5609756 C26.4390244,14.0487805 25.5609756,14.2439024 24.7804878,13.8536585 Z"></path>
            </g>
        </g>
    </g>
</svg>